<svg xmlns="http://www.w3.org/2000/svg" xmlns:xlink="http://www.w3.org/1999/xlink" width="1205" height="791" contentStyleType="text/css" preserveAspectRatio="none" style="width:1205px;height:791px;background:#fff" version="1.1" viewBox="0 0 1205 791" zoomAndPan="magnify"><g><g id="cluster_config"><rect width="708" height="229" x="238" y="244" fill="none" rx="2.5" ry="2.5" style="stroke:#181818;stroke-width:1"/><text x="566.5" y="258.995" fill="#000" font-family="sans-serif" font-size="14" font-weight="bold" lengthAdjust="spacing" textLength="51">config</text></g><g id="cluster_hypervisor_mod"><rect width="1192" height="288" x="7" y="497" fill="#FFACAB" rx="2.5" ry="2.5" style="stroke:#181818;stroke-width:1"/><text x="539.5" y="511.995" fill="#000" font-family="sans-serif" font-size="14" font-weight="bold" lengthAdjust="spacing" textLength="127">hypervisor_mod</text></g><g id="cluster_HYPERVISOR_PLUGINS"><rect width="588" height="213" x="555" y="7" fill="none" rx="2.5" ry="2.5" style="stroke:#181818;stroke-width:1"/><text x="761.5" y="21.995" fill="#000" font-family="sans-serif" font-size="14" font-weight="bold" lengthAdjust="spacing" textLength="175">HYPERVISOR_PLUGINS</text></g><g id="elem_ConfigPlugin"><rect id="ConfigPlugin" width="162" height="129.484" x="768" y="303.5" fill="#F1F1F1" codeLine="2" rx="2.5" ry="2.5" style="stroke:#181818;stroke-width:.5"/><ellipse cx="801.45" cy="319.5" fill="#B4A7E5" rx="11" ry="11" style="stroke:#181818;stroke-width:1"/><path fill="#000" d="M802.4031,316.2813 L804.1219,316.2813 C804.5125,316.2813 804.7,316.25 804.825,316.1719 C805.0906,316.0156 805.2313,315.7344 805.2313,315.4375 C805.2313,315.1719 805.1219,314.9063 804.8875,314.7344 C804.7156,314.625 804.575,314.5938 804.1219,314.5938 L798.9813,314.5938 C798.5438,314.5938 798.4188,314.6094 798.2625,314.7031 C798.0125,314.8594 797.8563,315.1563 797.8563,315.4375 C797.8563,315.7188 797.9969,315.9688 798.2156,316.1406 C798.3719,316.25 798.5594,316.2813 798.9813,316.2813 L800.7,316.2813 L800.7,322.7969 L798.9813,322.7969 C798.5438,322.7969 798.4188,322.8125 798.2625,322.9219 C798.0125,323.0781 797.8563,323.3594 797.8563,323.6563 C797.8563,323.9063 797.9969,324.1719 798.2156,324.3281 C798.3719,324.4531 798.575,324.5 798.9813,324.5 L804.1219,324.5 C804.8719,324.5 805.2313,324.2188 805.2313,323.6563 C805.2313,323.375 805.1219,323.125 804.8875,322.9531 C804.7156,322.8281 804.575,322.7969 804.1219,322.7969 L802.4031,322.7969 L802.4031,316.2813 Z"/><text x="819.55" y="324.347" fill="#000" font-family="sans-serif" font-size="14" font-style="italic" lengthAdjust="spacing" textLength="89">ConfigPlugin</text><line style="stroke:#181818;stroke-width:.5" x1="769" x2="929" y1="335.5" y2="335.5"/><line style="stroke:#181818;stroke-width:.5" x1="769" x2="929" y1="343.5" y2="343.5"/><rect width="6" height="6" x="776" fill="#F24D5C" style="stroke:#c82930;stroke-width:1" y="354.148"/><text x="788" y="360.495" fill="#000" font-family="sans-serif" font-size="14" lengthAdjust="spacing" textLength="50">name()</text><rect width="6" height="6" x="776" fill="#F24D5C" style="stroke:#c82930;stroke-width:1" y="370.445"/><text x="788" y="376.792" fill="#000" font-family="sans-serif" font-size="14" lengthAdjust="spacing" textLength="105">adjust_config()</text><rect width="6" height="6" x="776" fill="#F24D5C" style="stroke:#c82930;stroke-width:1" y="386.742"/><text x="788" y="393.089" fill="#000" font-family="sans-serif" font-size="14" lengthAdjust="spacing" textLength="67">validate()</text><rect width="6" height="6" x="776" fill="#F24D5C" style="stroke:#c82930;stroke-width:1" y="403.039"/><text x="788" y="409.386" fill="#000" font-family="sans-serif" font-size="14" lengthAdjust="spacing" textLength="136">get_min_memory()</text><rect width="6" height="6" x="776" fill="#F24D5C" style="stroke:#c82930;stroke-width:1" y="419.336"/><text x="788" y="425.683" fill="#000" font-family="sans-serif" font-size="14" lengthAdjust="spacing" textLength="112">get_max_cpus()</text></g><g id="elem_ConfigOps"><rect id="ConfigOps" width="131" height="80.594" x="601.5" y="327.5" fill="#F1F1F1" codeLine="10" rx="2.5" ry="2.5" style="stroke:#181818;stroke-width:.5"/><ellipse cx="628.2" cy="343.5" fill="#B4A7E5" rx="11" ry="11" style="stroke:#181818;stroke-width:1"/><path fill="#000" d="M629.1531,340.2813 L630.8719,340.2813 C631.2625,340.2813 631.45,340.25 631.575,340.1719 C631.8406,340.0156 631.9813,339.7344 631.9813,339.4375 C631.9813,339.1719 631.8719,338.9063 631.6375,338.7344 C631.4656,338.625 631.325,338.5938 630.8719,338.5938 L625.7313,338.5938 C625.2938,338.5938 625.1688,338.6094 625.0125,338.7031 C624.7625,338.8594 624.6063,339.1563 624.6063,339.4375 C624.6063,339.7188 624.7469,339.9688 624.9656,340.1406 C625.1219,340.25 625.3094,340.2813 625.7313,340.2813 L627.45,340.2813 L627.45,346.7969 L625.7313,346.7969 C625.2938,346.7969 625.1688,346.8125 625.0125,346.9219 C624.7625,347.0781 624.6063,347.3594 624.6063,347.6563 C624.6063,347.9063 624.7469,348.1719 624.9656,348.3281 C625.1219,348.4531 625.325,348.5 625.7313,348.5 L630.8719,348.5 C631.6219,348.5 631.9813,348.2188 631.9813,347.6563 C631.9813,347.375 631.8719,347.125 631.6375,346.9531 C631.4656,346.8281 631.325,346.7969 630.8719,346.7969 L629.1531,346.7969 L629.1531,340.2813 Z"/><text x="644.8" y="348.347" fill="#000" font-family="sans-serif" font-size="14" font-style="italic" lengthAdjust="spacing" textLength="73">ConfigOps</text><line style="stroke:#181818;stroke-width:.5" x1="602.5" x2="731.5" y1="359.5" y2="359.5"/><line style="stroke:#181818;stroke-width:.5" x1="602.5" x2="731.5" y1="367.5" y2="367.5"/><rect width="6" height="6" x="609.5" fill="#F24D5C" style="stroke:#c82930;stroke-width:1" y="378.148"/><text x="621.5" y="384.495" fill="#000" font-family="sans-serif" font-size="14" lengthAdjust="spacing" textLength="105">adjust_config()</text><rect width="6" height="6" x="609.5" fill="#F24D5C" style="stroke:#c82930;stroke-width:1" y="394.445"/><text x="621.5" y="400.792" fill="#000" font-family="sans-serif" font-size="14" lengthAdjust="spacing" textLength="67">validate()</text></g><g id="elem_TomlConfig"><rect id="TomlConfig" width="312" height="178.375" x="254" y="279" fill="#F1F1F1" codeLine="15" rx="2.5" ry="2.5" style="stroke:#181818;stroke-width:.5"/><ellipse cx="364.25" cy="295" fill="#ADD1B2" rx="11" ry="11" style="stroke:#181818;stroke-width:1"/><path fill="#000" d="M366.5938,290.6719 C365.6563,290.2344 365.0625,290.0938 364.1875,290.0938 C361.5625,290.0938 359.5625,292.1719 359.5625,294.8906 L359.5625,296.0156 C359.5625,298.5938 361.6719,300.4844 364.5625,300.4844 C365.7813,300.4844 366.9375,300.1875 367.6875,299.6406 C368.2656,299.2344 368.5938,298.7813 368.5938,298.3906 C368.5938,297.9375 368.2031,297.5469 367.7344,297.5469 C367.5156,297.5469 367.3125,297.625 367.125,297.8125 C366.6719,298.2969 366.6719,298.2969 366.4844,298.3906 C366.0625,298.6563 365.375,298.7813 364.6094,298.7813 C362.5625,298.7813 361.2656,297.6875 361.2656,295.9844 L361.2656,294.8906 C361.2656,293.1094 362.5156,291.7969 364.25,291.7969 C364.8281,291.7969 365.4375,291.9531 365.9063,292.2031 C366.3906,292.4844 366.5625,292.7031 366.6563,293.1094 C366.7188,293.5156 366.75,293.6406 366.8906,293.7656 C367.0313,293.9063 367.2656,294.0156 367.4844,294.0156 C367.75,294.0156 368.0156,293.875 368.1875,293.6563 C368.2969,293.5 368.3281,293.3125 368.3281,292.8906 L368.3281,291.4688 C368.3281,291.0313 368.3125,290.9063 368.2188,290.75 C368.0625,290.4844 367.7813,290.3438 367.4844,290.3438 C367.1875,290.3438 366.9844,290.4375 366.7656,290.75 L366.5938,290.6719 Z"/><text x="384.75" y="299.847" fill="#000" font-family="sans-serif" font-size="14" lengthAdjust="spacing" textLength="83">TomlConfig</text><line style="stroke:#181818;stroke-width:.5" x1="255" x2="565" y1="311" y2="311"/><text x="260" y="327.995" fill="#000" font-family="sans-serif" font-size="14" lengthAdjust="spacing" textLength="233">agent: HashMap&lt;String, Agent&gt;</text><text x="260" y="344.292" fill="#000" font-family="sans-serif" font-size="14" lengthAdjust="spacing" textLength="300">hypervisor: HashMap&lt;String, Hypervisor&gt;</text><text x="260" y="360.589" fill="#000" font-family="sans-serif" font-size="14" lengthAdjust="spacing" textLength="127">runtime: Runtime</text><line style="stroke:#181818;stroke-width:.5" x1="255" x2="565" y1="367.891" y2="367.891"/><ellipse cx="265" cy="381.539" fill="#84BE84" rx="3" ry="3" style="stroke:#038048;stroke-width:1"/><text x="274" y="384.886" fill="#000" font-family="sans-serif" font-size="14" lengthAdjust="spacing" textLength="112">load_from_file()</text><ellipse cx="265" cy="397.836" fill="#84BE84" rx="3" ry="3" style="stroke:#038048;stroke-width:1"/><text x="274" y="401.183" fill="#000" font-family="sans-serif" font-size="14" lengthAdjust="spacing" textLength="144">load_raw_from_file()</text><ellipse cx="265" cy="414.133" fill="#84BE84" rx="3" ry="3" style="stroke:#038048;stroke-width:1"/><text x="274" y="417.479" fill="#000" font-family="sans-serif" font-size="14" lengthAdjust="spacing" textLength="40">load()</text><ellipse cx="265" cy="430.43" fill="#84BE84" rx="3" ry="3" style="stroke:#038048;stroke-width:1"/><text x="274" y="433.776" fill="#000" font-family="sans-serif" font-size="14" lengthAdjust="spacing" textLength="67">validate()</text><rect width="6" height="6" x="262" fill="#F24D5C" style="stroke:#c82930;stroke-width:1" y="443.727"/><text x="274" y="450.073" fill="#000" font-family="sans-serif" font-size="14" lengthAdjust="spacing" textLength="175">get_default_config_file()</text></g><g id="elem_blockdev_info"><rect id="blockdev_info" width="133" height="48" x="321.5" y="721" fill="#F1F1F1" codeLine="28" rx="2.5" ry="2.5" style="stroke:#181818;stroke-width:.5"/><ellipse cx="336.5" cy="737" fill="#ADD1B2" rx="11" ry="11" style="stroke:#181818;stroke-width:1"/><path fill="#000" d="M338.8438,732.6719 C337.9063,732.2344 337.3125,732.0938 336.4375,732.0938 C333.8125,732.0938 331.8125,734.1719 331.8125,736.8906 L331.8125,738.0156 C331.8125,740.5938 333.9219,742.4844 336.8125,742.4844 C338.0313,742.4844 339.1875,742.1875 339.9375,741.6406 C340.5156,741.2344 340.8438,740.7813 340.8438,740.3906 C340.8438,739.9375 340.4531,739.5469 339.9844,739.5469 C339.7656,739.5469 339.5625,739.625 339.375,739.8125 C338.9219,740.2969 338.9219,740.2969 338.7344,740.3906 C338.3125,740.6563 337.625,740.7813 336.8594,740.7813 C334.8125,740.7813 333.5156,739.6875 333.5156,737.9844 L333.5156,736.8906 C333.5156,735.1094 334.7656,733.7969 336.5,733.7969 C337.0781,733.7969 337.6875,733.9531 338.1563,734.2031 C338.6406,734.4844 338.8125,734.7031 338.9063,735.1094 C338.9688,735.5156 339,735.6406 339.1406,735.7656 C339.2813,735.9063 339.5156,736.0156 339.7344,736.0156 C340,736.0156 340.2656,735.875 340.4375,735.6563 C340.5469,735.5 340.5781,735.3125 340.5781,734.8906 L340.5781,733.4688 C340.5781,733.0313 340.5625,732.9063 340.4688,732.75 C340.3125,732.4844 340.0313,732.3438 339.7344,732.3438 C339.4375,732.3438 339.2344,732.4375 339.0156,732.75 L338.8438,732.6719 Z"/><text x="350.5" y="741.847" fill="#000" font-family="sans-serif" font-size="14" lengthAdjust="spacing" textLength="101">blockdev_info</text><line style="stroke:#181818;stroke-width:.5" x1="322.5" x2="453.5" y1="753" y2="753"/><line style="stroke:#181818;stroke-width:.5" x1="322.5" x2="453.5" y1="761" y2="761"/></g><g id="elem_boot_info"><rect id="boot_info" width="102" height="48" x="490" y="721" fill="#F1F1F1" codeLine="30" rx="2.5" ry="2.5" style="stroke:#181818;stroke-width:.5"/><ellipse cx="505" cy="737" fill="#ADD1B2" rx="11" ry="11" style="stroke:#181818;stroke-width:1"/><path fill="#000" d="M507.3438,732.6719 C506.4063,732.2344 505.8125,732.0938 504.9375,732.0938 C502.3125,732.0938 500.3125,734.1719 500.3125,736.8906 L500.3125,738.0156 C500.3125,740.5938 502.4219,742.4844 505.3125,742.4844 C506.5313,742.4844 507.6875,742.1875 508.4375,741.6406 C509.0156,741.2344 509.3438,740.7813 509.3438,740.3906 C509.3438,739.9375 508.9531,739.5469 508.4844,739.5469 C508.2656,739.5469 508.0625,739.625 507.875,739.8125 C507.4219,740.2969 507.4219,740.2969 507.2344,740.3906 C506.8125,740.6563 506.125,740.7813 505.3594,740.7813 C503.3125,740.7813 502.0156,739.6875 502.0156,737.9844 L502.0156,736.8906 C502.0156,735.1094 503.2656,733.7969 505,733.7969 C505.5781,733.7969 506.1875,733.9531 506.6563,734.2031 C507.1406,734.4844 507.3125,734.7031 507.4063,735.1094 C507.4688,735.5156 507.5,735.6406 507.6406,735.7656 C507.7813,735.9063 508.0156,736.0156 508.2344,736.0156 C508.5,736.0156 508.7656,735.875 508.9375,735.6563 C509.0469,735.5 509.0781,735.3125 509.0781,734.8906 L509.0781,733.4688 C509.0781,733.0313 509.0625,732.9063 508.9688,732.75 C508.8125,732.4844 508.5313,732.3438 508.2344,732.3438 C507.9375,732.3438 507.7344,732.4375 507.5156,732.75 L507.3438,732.6719 Z"/><text x="519" y="741.847" fill="#000" font-family="sans-serif" font-size="14" lengthAdjust="spacing" textLength="70">boot_info</text><line style="stroke:#181818;stroke-width:.5" x1="491" x2="591" y1="753" y2="753"/><line style="stroke:#181818;stroke-width:.5" x1="491" x2="591" y1="761" y2="761"/></g><g id="elem_cpu_info"><rect id="cpu_info" width="93" height="48" x="1089.5" y="572.5" fill="#F1F1F1" codeLine="32" rx="2.5" ry="2.5" style="stroke:#181818;stroke-width:.5"/><ellipse cx="1104.5" cy="588.5" fill="#ADD1B2" rx="11" ry="11" style="stroke:#181818;stroke-width:1"/><path fill="#000" d="M1106.8438,584.1719 C1105.9063,583.7344 1105.3125,583.5938 1104.4375,583.5938 C1101.8125,583.5938 1099.8125,585.6719 1099.8125,588.3906 L1099.8125,589.5156 C1099.8125,592.0938 1101.9219,593.9844 1104.8125,593.9844 C1106.0313,593.9844 1107.1875,593.6875 1107.9375,593.1406 C1108.5156,592.7344 1108.8438,592.2813 1108.8438,591.8906 C1108.8438,591.4375 1108.4531,591.0469 1107.9844,591.0469 C1107.7656,591.0469 1107.5625,591.125 1107.375,591.3125 C1106.9219,591.7969 1106.9219,591.7969 1106.7344,591.8906 C1106.3125,592.1563 1105.625,592.2813 1104.8594,592.2813 C1102.8125,592.2813 1101.5156,591.1875 1101.5156,589.4844 L1101.5156,588.3906 C1101.5156,586.6094 1102.7656,585.2969 1104.5,585.2969 C1105.0781,585.2969 1105.6875,585.4531 1106.1563,585.7031 C1106.6406,585.9844 1106.8125,586.2031 1106.9063,586.6094 C1106.9688,587.0156 1107,587.1406 1107.1406,587.2656 C1107.2813,587.4063 1107.5156,587.5156 1107.7344,587.5156 C1108,587.5156 1108.2656,587.375 1108.4375,587.1563 C1108.5469,587 1108.5781,586.8125 1108.5781,586.3906 L1108.5781,584.9688 C1108.5781,584.5313 1108.5625,584.4063 1108.4688,584.25 C1108.3125,583.9844 1108.0313,583.8438 1107.7344,583.8438 C1107.4375,583.8438 1107.2344,583.9375 1107.0156,584.25 L1106.8438,584.1719 Z"/><text x="1118.5" y="593.347" fill="#000" font-family="sans-serif" font-size="14" lengthAdjust="spacing" textLength="61">cpu_info</text><line style="stroke:#181818;stroke-width:.5" x1="1090.5" x2="1181.5" y1="604.5" y2="604.5"/><line style="stroke:#181818;stroke-width:.5" x1="1090.5" x2="1181.5" y1="612.5" y2="612.5"/></g><g id="elem_debug_info"><rect id="debug_info" width="112" height="48" x="627" y="721" fill="#F1F1F1" codeLine="34" rx="2.5" ry="2.5" style="stroke:#181818;stroke-width:.5"/><ellipse cx="642" cy="737" fill="#ADD1B2" rx="11" ry="11" style="stroke:#181818;stroke-width:1"/><path fill="#000" d="M644.3438,732.6719 C643.4063,732.2344 642.8125,732.0938 641.9375,732.0938 C639.3125,732.0938 637.3125,734.1719 637.3125,736.8906 L637.3125,738.0156 C637.3125,740.5938 639.4219,742.4844 642.3125,742.4844 C643.5313,742.4844 644.6875,742.1875 645.4375,741.6406 C646.0156,741.2344 646.3438,740.7813 646.3438,740.3906 C646.3438,739.9375 645.9531,739.5469 645.4844,739.5469 C645.2656,739.5469 645.0625,739.625 644.875,739.8125 C644.4219,740.2969 644.4219,740.2969 644.2344,740.3906 C643.8125,740.6563 643.125,740.7813 642.3594,740.7813 C640.3125,740.7813 639.0156,739.6875 639.0156,737.9844 L639.0156,736.8906 C639.0156,735.1094 640.2656,733.7969 642,733.7969 C642.5781,733.7969 643.1875,733.9531 643.6563,734.2031 C644.1406,734.4844 644.3125,734.7031 644.4063,735.1094 C644.4688,735.5156 644.5,735.6406 644.6406,735.7656 C644.7813,735.9063 645.0156,736.0156 645.2344,736.0156 C645.5,736.0156 645.7656,735.875 645.9375,735.6563 C646.0469,735.5 646.0781,735.3125 646.0781,734.8906 L646.0781,733.4688 C646.0781,733.0313 646.0625,732.9063 645.9688,732.75 C645.8125,732.4844 645.5313,732.3438 645.2344,732.3438 C644.9375,732.3438 644.7344,732.4375 644.5156,732.75 L644.3438,732.6719 Z"/><text x="656" y="741.847" fill="#000" font-family="sans-serif" font-size="14" lengthAdjust="spacing" textLength="80">debug_info</text><line style="stroke:#181818;stroke-width:.5" x1="628" x2="738" y1="753" y2="753"/><line style="stroke:#181818;stroke-width:.5" x1="628" x2="738" y1="761" y2="761"/></g><g id="elem_device_info"><rect id="device_info" width="114" height="48" x="345" y="572.5" fill="#F1F1F1" codeLine="36" rx="2.5" ry="2.5" style="stroke:#181818;stroke-width:.5"/><ellipse cx="360" cy="588.5" fill="#ADD1B2" rx="11" ry="11" style="stroke:#181818;stroke-width:1"/><path fill="#000" d="M362.3438,584.1719 C361.4063,583.7344 360.8125,583.5938 359.9375,583.5938 C357.3125,583.5938 355.3125,585.6719 355.3125,588.3906 L355.3125,589.5156 C355.3125,592.0938 357.4219,593.9844 360.3125,593.9844 C361.5313,593.9844 362.6875,593.6875 363.4375,593.1406 C364.0156,592.7344 364.3438,592.2813 364.3438,591.8906 C364.3438,591.4375 363.9531,591.0469 363.4844,591.0469 C363.2656,591.0469 363.0625,591.125 362.875,591.3125 C362.4219,591.7969 362.4219,591.7969 362.2344,591.8906 C361.8125,592.1563 361.125,592.2813 360.3594,592.2813 C358.3125,592.2813 357.0156,591.1875 357.0156,589.4844 L357.0156,588.3906 C357.0156,586.6094 358.2656,585.2969 360,585.2969 C360.5781,585.2969 361.1875,585.4531 361.6563,585.7031 C362.1406,585.9844 362.3125,586.2031 362.4063,586.6094 C362.4688,587.0156 362.5,587.1406 362.6406,587.2656 C362.7813,587.4063 363.0156,587.5156 363.2344,587.5156 C363.5,587.5156 363.7656,587.375 363.9375,587.1563 C364.0469,587 364.0781,586.8125 364.0781,586.3906 L364.0781,584.9688 C364.0781,584.5313 364.0625,584.4063 363.9688,584.25 C363.8125,583.9844 363.5313,583.8438 363.2344,583.8438 C362.9375,583.8438 362.7344,583.9375 362.5156,584.25 L362.3438,584.1719 Z"/><text x="374" y="593.347" fill="#000" font-family="sans-serif" font-size="14" lengthAdjust="spacing" textLength="82">device_info</text><line style="stroke:#181818;stroke-width:.5" x1="346" x2="458" y1="604.5" y2="604.5"/><line style="stroke:#181818;stroke-width:.5" x1="346" x2="458" y1="612.5" y2="612.5"/></g><g id="elem_machine_info"><rect id="machine_info" width="128" height="48" x="182" y="572.5" fill="#F1F1F1" codeLine="38" rx="2.5" ry="2.5" style="stroke:#181818;stroke-width:.5"/><ellipse cx="197" cy="588.5" fill="#ADD1B2" rx="11" ry="11" style="stroke:#181818;stroke-width:1"/><path fill="#000" d="M199.3438,584.1719 C198.4063,583.7344 197.8125,583.5938 196.9375,583.5938 C194.3125,583.5938 192.3125,585.6719 192.3125,588.3906 L192.3125,589.5156 C192.3125,592.0938 194.4219,593.9844 197.3125,593.9844 C198.5313,593.9844 199.6875,593.6875 200.4375,593.1406 C201.0156,592.7344 201.3438,592.2813 201.3438,591.8906 C201.3438,591.4375 200.9531,591.0469 200.4844,591.0469 C200.2656,591.0469 200.0625,591.125 199.875,591.3125 C199.4219,591.7969 199.4219,591.7969 199.2344,591.8906 C198.8125,592.1563 198.125,592.2813 197.3594,592.2813 C195.3125,592.2813 194.0156,591.1875 194.0156,589.4844 L194.0156,588.3906 C194.0156,586.6094 195.2656,585.2969 197,585.2969 C197.5781,585.2969 198.1875,585.4531 198.6563,585.7031 C199.1406,585.9844 199.3125,586.2031 199.4063,586.6094 C199.4688,587.0156 199.5,587.1406 199.6406,587.2656 C199.7813,587.4063 200.0156,587.5156 200.2344,587.5156 C200.5,587.5156 200.7656,587.375 200.9375,587.1563 C201.0469,587 201.0781,586.8125 201.0781,586.3906 L201.0781,584.9688 C201.0781,584.5313 201.0625,584.4063 200.9688,584.25 C200.8125,583.9844 200.5313,583.8438 200.2344,583.8438 C199.9375,583.8438 199.7344,583.9375 199.5156,584.25 L199.3438,584.1719 Z"/><text x="211" y="593.347" fill="#000" font-family="sans-serif" font-size="14" lengthAdjust="spacing" textLength="96">machine_info</text><line style="stroke:#181818;stroke-width:.5" x1="183" x2="309" y1="604.5" y2="604.5"/><line style="stroke:#181818;stroke-width:.5" x1="183" x2="309" y1="612.5" y2="612.5"/></g><g id="elem_memory_info"><rect id="memory_info" width="127" height="48" x="927.5" y="572.5" fill="#F1F1F1" codeLine="40" rx="2.5" ry="2.5" style="stroke:#181818;stroke-width:.5"/><ellipse cx="942.5" cy="588.5" fill="#ADD1B2" rx="11" ry="11" style="stroke:#181818;stroke-width:1"/><path fill="#000" d="M944.8438,584.1719 C943.9063,583.7344 943.3125,583.5938 942.4375,583.5938 C939.8125,583.5938 937.8125,585.6719 937.8125,588.3906 L937.8125,589.5156 C937.8125,592.0938 939.9219,593.9844 942.8125,593.9844 C944.0313,593.9844 945.1875,593.6875 945.9375,593.1406 C946.5156,592.7344 946.8438,592.2813 946.8438,591.8906 C946.8438,591.4375 946.4531,591.0469 945.9844,591.0469 C945.7656,591.0469 945.5625,591.125 945.375,591.3125 C944.9219,591.7969 944.9219,591.7969 944.7344,591.8906 C944.3125,592.1563 943.625,592.2813 942.8594,592.2813 C940.8125,592.2813 939.5156,591.1875 939.5156,589.4844 L939.5156,588.3906 C939.5156,586.6094 940.7656,585.2969 942.5,585.2969 C943.0781,585.2969 943.6875,585.4531 944.1563,585.7031 C944.6406,585.9844 944.8125,586.2031 944.9063,586.6094 C944.9688,587.0156 945,587.1406 945.1406,587.2656 C945.2813,587.4063 945.5156,587.5156 945.7344,587.5156 C946,587.5156 946.2656,587.375 946.4375,587.1563 C946.5469,587 946.5781,586.8125 946.5781,586.3906 L946.5781,584.9688 C946.5781,584.5313 946.5625,584.4063 946.4688,584.25 C946.3125,583.9844 946.0313,583.8438 945.7344,583.8438 C945.4375,583.8438 945.2344,583.9375 945.0156,584.25 L944.8438,584.1719 Z"/><text x="956.5" y="593.347" fill="#000" font-family="sans-serif" font-size="14" lengthAdjust="spacing" textLength="95">memory_info</text><line style="stroke:#181818;stroke-width:.5" x1="928.5" x2="1053.5" y1="604.5" y2="604.5"/><line style="stroke:#181818;stroke-width:.5" x1="928.5" x2="1053.5" y1="612.5" y2="612.5"/></g><g id="elem_network_info"><rect id="network_info" width="127" height="48" x="765.5" y="572.5" fill="#F1F1F1" codeLine="42" rx="2.5" ry="2.5" style="stroke:#181818;stroke-width:.5"/><ellipse cx="780.5" cy="588.5" fill="#ADD1B2" rx="11" ry="11" style="stroke:#181818;stroke-width:1"/><path fill="#000" d="M782.8438,584.1719 C781.9063,583.7344 781.3125,583.5938 780.4375,583.5938 C777.8125,583.5938 775.8125,585.6719 775.8125,588.3906 L775.8125,589.5156 C775.8125,592.0938 777.9219,593.9844 780.8125,593.9844 C782.0313,593.9844 783.1875,593.6875 783.9375,593.1406 C784.5156,592.7344 784.8438,592.2813 784.8438,591.8906 C784.8438,591.4375 784.4531,591.0469 783.9844,591.0469 C783.7656,591.0469 783.5625,591.125 783.375,591.3125 C782.9219,591.7969 782.9219,591.7969 782.7344,591.8906 C782.3125,592.1563 781.625,592.2813 780.8594,592.2813 C778.8125,592.2813 777.5156,591.1875 777.5156,589.4844 L777.5156,588.3906 C777.5156,586.6094 778.7656,585.2969 780.5,585.2969 C781.0781,585.2969 781.6875,585.4531 782.1563,585.7031 C782.6406,585.9844 782.8125,586.2031 782.9063,586.6094 C782.9688,587.0156 783,587.1406 783.1406,587.2656 C783.2813,587.4063 783.5156,587.5156 783.7344,587.5156 C784,587.5156 784.2656,587.375 784.4375,587.1563 C784.5469,587 784.5781,586.8125 784.5781,586.3906 L784.5781,584.9688 C784.5781,584.5313 784.5625,584.4063 784.4688,584.25 C784.3125,583.9844 784.0313,583.8438 783.7344,583.8438 C783.4375,583.8438 783.2344,583.9375 783.0156,584.25 L782.8438,584.1719 Z"/><text x="794.5" y="593.347" fill="#000" font-family="sans-serif" font-size="14" lengthAdjust="spacing" textLength="95">network_info</text><line style="stroke:#181818;stroke-width:.5" x1="766.5" x2="891.5" y1="604.5" y2="604.5"/><line style="stroke:#181818;stroke-width:.5" x1="766.5" x2="891.5" y1="612.5" y2="612.5"/></g><g id="elem_security_info"><rect id="security_info" width="124" height="48" x="23" y="572.5" fill="#F1F1F1" codeLine="44" rx="2.5" ry="2.5" style="stroke:#181818;stroke-width:.5"/><ellipse cx="38" cy="588.5" fill="#ADD1B2" rx="11" ry="11" style="stroke:#181818;stroke-width:1"/><path fill="#000" d="M40.3438,584.1719 C39.4063,583.7344 38.8125,583.5938 37.9375,583.5938 C35.3125,583.5938 33.3125,585.6719 33.3125,588.3906 L33.3125,589.5156 C33.3125,592.0938 35.4219,593.9844 38.3125,593.9844 C39.5313,593.9844 40.6875,593.6875 41.4375,593.1406 C42.0156,592.7344 42.3438,592.2813 42.3438,591.8906 C42.3438,591.4375 41.9531,591.0469 41.4844,591.0469 C41.2656,591.0469 41.0625,591.125 40.875,591.3125 C40.4219,591.7969 40.4219,591.7969 40.2344,591.8906 C39.8125,592.1563 39.125,592.2813 38.3594,592.2813 C36.3125,592.2813 35.0156,591.1875 35.0156,589.4844 L35.0156,588.3906 C35.0156,586.6094 36.2656,585.2969 38,585.2969 C38.5781,585.2969 39.1875,585.4531 39.6563,585.7031 C40.1406,585.9844 40.3125,586.2031 40.4063,586.6094 C40.4688,587.0156 40.5,587.1406 40.6406,587.2656 C40.7813,587.4063 41.0156,587.5156 41.2344,587.5156 C41.5,587.5156 41.7656,587.375 41.9375,587.1563 C42.0469,587 42.0781,586.8125 42.0781,586.3906 L42.0781,584.9688 C42.0781,584.5313 42.0625,584.4063 41.9688,584.25 C41.8125,583.9844 41.5313,583.8438 41.2344,583.8438 C40.9375,583.8438 40.7344,583.9375 40.5156,584.25 L40.3438,584.1719 Z"/><text x="52" y="593.347" fill="#000" font-family="sans-serif" font-size="14" lengthAdjust="spacing" textLength="92">security_info</text><line style="stroke:#181818;stroke-width:.5" x1="24" x2="146" y1="604.5" y2="604.5"/><line style="stroke:#181818;stroke-width:.5" x1="24" x2="146" y1="612.5" y2="612.5"/></g><g id="elem_shared_fs"><rect id="shared_fs" width="100" height="48" x="774" y="721" fill="#F1F1F1" codeLine="46" rx="2.5" ry="2.5" style="stroke:#181818;stroke-width:.5"/><ellipse cx="789" cy="737" fill="#ADD1B2" rx="11" ry="11" style="stroke:#181818;stroke-width:1"/><path fill="#000" d="M791.3438,732.6719 C790.4063,732.2344 789.8125,732.0938 788.9375,732.0938 C786.3125,732.0938 784.3125,734.1719 784.3125,736.8906 L784.3125,738.0156 C784.3125,740.5938 786.4219,742.4844 789.3125,742.4844 C790.5313,742.4844 791.6875,742.1875 792.4375,741.6406 C793.0156,741.2344 793.3438,740.7813 793.3438,740.3906 C793.3438,739.9375 792.9531,739.5469 792.4844,739.5469 C792.2656,739.5469 792.0625,739.625 791.875,739.8125 C791.4219,740.2969 791.4219,740.2969 791.2344,740.3906 C790.8125,740.6563 790.125,740.7813 789.3594,740.7813 C787.3125,740.7813 786.0156,739.6875 786.0156,737.9844 L786.0156,736.8906 C786.0156,735.1094 787.2656,733.7969 789,733.7969 C789.5781,733.7969 790.1875,733.9531 790.6563,734.2031 C791.1406,734.4844 791.3125,734.7031 791.4063,735.1094 C791.4688,735.5156 791.5,735.6406 791.6406,735.7656 C791.7813,735.9063 792.0156,736.0156 792.2344,736.0156 C792.5,736.0156 792.7656,735.875 792.9375,735.6563 C793.0469,735.5 793.0781,735.3125 793.0781,734.8906 L793.0781,733.4688 C793.0781,733.0313 793.0625,732.9063 792.9688,732.75 C792.8125,732.4844 792.5313,732.3438 792.2344,732.3438 C791.9375,732.3438 791.7344,732.4375 791.5156,732.75 L791.3438,732.6719 Z"/><text x="803" y="741.847" fill="#000" font-family="sans-serif" font-size="14" lengthAdjust="spacing" textLength="68">shared_fs</text><line style="stroke:#181818;stroke-width:.5" x1="775" x2="873" y1="753" y2="753"/><line style="stroke:#181818;stroke-width:.5" x1="775" x2="873" y1="761" y2="761"/></g><g id="elem_Hypervisor"><rect id="Hypervisor" width="236" height="129.484" x="494" y="532" fill="#F1F1F1" codeLine="48" rx="2.5" ry="2.5" style="stroke:#181818;stroke-width:.5"/><ellipse cx="569.25" cy="548" fill="#ADD1B2" rx="11" ry="11" style="stroke:#181818;stroke-width:1"/><path fill="#000" d="M571.5938,543.6719 C570.6563,543.2344 570.0625,543.0938 569.1875,543.0938 C566.5625,543.0938 564.5625,545.1719 564.5625,547.8906 L564.5625,549.0156 C564.5625,551.5938 566.6719,553.4844 569.5625,553.4844 C570.7813,553.4844 571.9375,553.1875 572.6875,552.6406 C573.2656,552.2344 573.5938,551.7813 573.5938,551.3906 C573.5938,550.9375 573.2031,550.5469 572.7344,550.5469 C572.5156,550.5469 572.3125,550.625 572.125,550.8125 C571.6719,551.2969 571.6719,551.2969 571.4844,551.3906 C571.0625,551.6563 570.375,551.7813 569.6094,551.7813 C567.5625,551.7813 566.2656,550.6875 566.2656,548.9844 L566.2656,547.8906 C566.2656,546.1094 567.5156,544.7969 569.25,544.7969 C569.8281,544.7969 570.4375,544.9531 570.9063,545.2031 C571.3906,545.4844 571.5625,545.7031 571.6563,546.1094 C571.7188,546.5156 571.75,546.6406 571.8906,546.7656 C572.0313,546.9063 572.2656,547.0156 572.4844,547.0156 C572.75,547.0156 573.0156,546.875 573.1875,546.6563 C573.2969,546.5 573.3281,546.3125 573.3281,545.8906 L573.3281,544.4688 C573.3281,544.0313 573.3125,543.9063 573.2188,543.75 C573.0625,543.4844 572.7813,543.3438 572.4844,543.3438 C572.1875,543.3438 571.9844,543.4375 571.7656,543.75 L571.5938,543.6719 Z"/><text x="589.75" y="552.847" fill="#000" font-family="sans-serif" font-size="14" lengthAdjust="spacing" textLength="77">Hypervisor</text><line style="stroke:#181818;stroke-width:.5" x1="495" x2="729" y1="564" y2="564"/><line style="stroke:#181818;stroke-width:.5" x1="495" x2="729" y1="572" y2="572"/><ellipse cx="505" cy="585.648" fill="#84BE84" rx="3" ry="3" style="stroke:#038048;stroke-width:1"/><text x="514" y="588.995" fill="#000" font-family="sans-serif" font-size="14" lengthAdjust="spacing" textLength="191">validate_hypervisor_path()</text><ellipse cx="505" cy="601.945" fill="#84BE84" rx="3" ry="3" style="stroke:#038048;stroke-width:1"/><text x="514" y="605.292" fill="#000" font-family="sans-serif" font-size="14" lengthAdjust="spacing" textLength="210">validate_hypervisor_ctlpath()</text><ellipse cx="505" cy="618.242" fill="#84BE84" rx="3" ry="3" style="stroke:#038048;stroke-width:1"/><text x="514" y="621.589" fill="#000" font-family="sans-serif" font-size="14" lengthAdjust="spacing" textLength="150">validate_jailer_path()</text><rect width="6" height="6" x="502" fill="#F24D5C" style="stroke:#c82930;stroke-width:1" y="631.539"/><text x="514" y="637.886" fill="#000" font-family="sans-serif" font-size="14" lengthAdjust="spacing" textLength="105">adjust_config()</text><rect width="6" height="6" x="502" fill="#F24D5C" style="stroke:#c82930;stroke-width:1" y="647.836"/><text x="514" y="654.183" fill="#000" font-family="sans-serif" font-size="14" lengthAdjust="spacing" textLength="67">validate()</text></g><g id="elem_dragonball"><rect id="dragonball" width="162" height="162.078" x="571" y="42" fill="#F1F1F1" codeLine="70" rx="2.5" ry="2.5" style="stroke:#181818;stroke-width:.5"/><ellipse cx="610.3" cy="58" fill="#ADD1B2" rx="11" ry="11" style="stroke:#181818;stroke-width:1"/><path fill="#000" d="M612.6438,53.6719 C611.7063,53.2344 611.1125,53.0938 610.2375,53.0938 C607.6125,53.0938 605.6125,55.1719 605.6125,57.8906 L605.6125,59.0156 C605.6125,61.5938 607.7219,63.4844 610.6125,63.4844 C611.8313,63.4844 612.9875,63.1875 613.7375,62.6406 C614.3156,62.2344 614.6438,61.7813 614.6438,61.3906 C614.6438,60.9375 614.2531,60.5469 613.7844,60.5469 C613.5656,60.5469 613.3625,60.625 613.175,60.8125 C612.7219,61.2969 612.7219,61.2969 612.5344,61.3906 C612.1125,61.6563 611.425,61.7813 610.6594,61.7813 C608.6125,61.7813 607.3156,60.6875 607.3156,58.9844 L607.3156,57.8906 C607.3156,56.1094 608.5656,54.7969 610.3,54.7969 C610.8781,54.7969 611.4875,54.9531 611.9563,55.2031 C612.4406,55.4844 612.6125,55.7031 612.7063,56.1094 C612.7688,56.5156 612.8,56.6406 612.9406,56.7656 C613.0813,56.9063 613.3156,57.0156 613.5344,57.0156 C613.8,57.0156 614.0656,56.875 614.2375,56.6563 C614.3469,56.5 614.3781,56.3125 614.3781,55.8906 L614.3781,54.4688 C614.3781,54.0313 614.3625,53.9063 614.2688,53.75 C614.1125,53.4844 613.8313,53.3438 613.5344,53.3438 C613.2375,53.3438 613.0344,53.4375 612.8156,53.75 L612.6438,53.6719 Z"/><text x="629.7" y="62.847" fill="#000" font-family="sans-serif" font-size="14" lengthAdjust="spacing" textLength="76">dragonball</text><line style="stroke:#181818;stroke-width:.5" x1="572" x2="732" y1="74" y2="74"/><line style="stroke:#181818;stroke-width:.5" x1="572" x2="732" y1="82" y2="82"/><ellipse cx="582" cy="95.648" fill="#84BE84" rx="3" ry="3" style="stroke:#038048;stroke-width:1"/><text x="591" y="98.995" fill="#000" font-family="sans-serif" font-size="14" lengthAdjust="spacing" textLength="39">new()</text><ellipse cx="582" cy="111.945" fill="#84BE84" rx="3" ry="3" style="stroke:#038048;stroke-width:1"/><text x="591" y="115.292" fill="#000" font-family="sans-serif" font-size="14" lengthAdjust="spacing" textLength="67">register()</text><rect width="6" height="6" x="579" fill="#F24D5C" style="stroke:#c82930;stroke-width:1" y="125.242"/><text x="591" y="131.589" fill="#000" font-family="sans-serif" font-size="14" lengthAdjust="spacing" textLength="50">name()</text><rect width="6" height="6" x="579" fill="#F24D5C" style="stroke:#c82930;stroke-width:1" y="141.539"/><text x="591" y="147.886" fill="#000" font-family="sans-serif" font-size="14" lengthAdjust="spacing" textLength="105">adjust_config()</text><rect width="6" height="6" x="579" fill="#F24D5C" style="stroke:#c82930;stroke-width:1" y="157.836"/><text x="591" y="164.183" fill="#000" font-family="sans-serif" font-size="14" lengthAdjust="spacing" textLength="67">validate()</text><rect width="6" height="6" x="579" fill="#F24D5C" style="stroke:#c82930;stroke-width:1" y="174.133"/><text x="591" y="180.48" fill="#000" font-family="sans-serif" font-size="14" lengthAdjust="spacing" textLength="136">get_min_memory()</text><rect width="6" height="6" x="579" fill="#F24D5C" style="stroke:#c82930;stroke-width:1" y="190.43"/><text x="591" y="196.776" fill="#000" font-family="sans-serif" font-size="14" lengthAdjust="spacing" textLength="112">get_max_cpus()</text></g><g id="elem_qemu"><rect id="qemu" width="162" height="162.078" x="768" y="42" fill="#F1F1F1" codeLine="80" rx="2.5" ry="2.5" style="stroke:#181818;stroke-width:.5"/><ellipse cx="824.75" cy="58" fill="#ADD1B2" rx="11" ry="11" style="stroke:#181818;stroke-width:1"/><path fill="#000" d="M827.0938,53.6719 C826.1563,53.2344 825.5625,53.0938 824.6875,53.0938 C822.0625,53.0938 820.0625,55.1719 820.0625,57.8906 L820.0625,59.0156 C820.0625,61.5938 822.1719,63.4844 825.0625,63.4844 C826.2813,63.4844 827.4375,63.1875 828.1875,62.6406 C828.7656,62.2344 829.0938,61.7813 829.0938,61.3906 C829.0938,60.9375 828.7031,60.5469 828.2344,60.5469 C828.0156,60.5469 827.8125,60.625 827.625,60.8125 C827.1719,61.2969 827.1719,61.2969 826.9844,61.3906 C826.5625,61.6563 825.875,61.7813 825.1094,61.7813 C823.0625,61.7813 821.7656,60.6875 821.7656,58.9844 L821.7656,57.8906 C821.7656,56.1094 823.0156,54.7969 824.75,54.7969 C825.3281,54.7969 825.9375,54.9531 826.4063,55.2031 C826.8906,55.4844 827.0625,55.7031 827.1563,56.1094 C827.2188,56.5156 827.25,56.6406 827.3906,56.7656 C827.5313,56.9063 827.7656,57.0156 827.9844,57.0156 C828.25,57.0156 828.5156,56.875 828.6875,56.6563 C828.7969,56.5 828.8281,56.3125 828.8281,55.8906 L828.8281,54.4688 C828.8281,54.0313 828.8125,53.9063 828.7188,53.75 C828.5625,53.4844 828.2813,53.3438 827.9844,53.3438 C827.6875,53.3438 827.4844,53.4375 827.2656,53.75 L827.0938,53.6719 Z"/><text x="845.25" y="62.847" fill="#000" font-family="sans-serif" font-size="14" lengthAdjust="spacing" textLength="40">qemu</text><line style="stroke:#181818;stroke-width:.5" x1="769" x2="929" y1="74" y2="74"/><line style="stroke:#181818;stroke-width:.5" x1="769" x2="929" y1="82" y2="82"/><ellipse cx="779" cy="95.648" fill="#84BE84" rx="3" ry="3" style="stroke:#038048;stroke-width:1"/><text x="788" y="98.995" fill="#000" font-family="sans-serif" font-size="14" lengthAdjust="spacing" textLength="39">new()</text><ellipse cx="779" cy="111.945" fill="#84BE84" rx="3" ry="3" style="stroke:#038048;stroke-width:1"/><text x="788" y="115.292" fill="#000" font-family="sans-serif" font-size="14" lengthAdjust="spacing" textLength="67">register()</text><rect width="6" height="6" x="776" fill="#F24D5C" style="stroke:#c82930;stroke-width:1" y="125.242"/><text x="788" y="131.589" fill="#000" font-family="sans-serif" font-size="14" lengthAdjust="spacing" textLength="50">name()</text><rect width="6" height="6" x="776" fill="#F24D5C" style="stroke:#c82930;stroke-width:1" y="141.539"/><text x="788" y="147.886" fill="#000" font-family="sans-serif" font-size="14" lengthAdjust="spacing" textLength="105">adjust_config()</text><rect width="6" height="6" x="776" fill="#F24D5C" style="stroke:#c82930;stroke-width:1" y="157.836"/><text x="788" y="164.183" fill="#000" font-family="sans-serif" font-size="14" lengthAdjust="spacing" textLength="67">validate()</text><rect width="6" height="6" x="776" fill="#F24D5C" style="stroke:#c82930;stroke-width:1" y="174.133"/><text x="788" y="180.48" fill="#000" font-family="sans-serif" font-size="14" lengthAdjust="spacing" textLength="136">get_min_memory()</text><rect width="6" height="6" x="776" fill="#F24D5C" style="stroke:#c82930;stroke-width:1" y="190.43"/><text x="788" y="196.776" fill="#000" font-family="sans-serif" font-size="14" lengthAdjust="spacing" textLength="112">get_max_cpus()</text></g><g id="elem_cloudHypervisor"><rect id="cloudHypervisor" width="162" height="162.078" x="965" y="42" fill="#F1F1F1" codeLine="90" rx="2.5" ry="2.5" style="stroke:#181818;stroke-width:.5"/><ellipse cx="986.75" cy="58" fill="#ADD1B2" rx="11" ry="11" style="stroke:#181818;stroke-width:1"/><path fill="#000" d="M989.0938,53.6719 C988.1563,53.2344 987.5625,53.0938 986.6875,53.0938 C984.0625,53.0938 982.0625,55.1719 982.0625,57.8906 L982.0625,59.0156 C982.0625,61.5938 984.1719,63.4844 987.0625,63.4844 C988.2813,63.4844 989.4375,63.1875 990.1875,62.6406 C990.7656,62.2344 991.0938,61.7813 991.0938,61.3906 C991.0938,60.9375 990.7031,60.5469 990.2344,60.5469 C990.0156,60.5469 989.8125,60.625 989.625,60.8125 C989.1719,61.2969 989.1719,61.2969 988.9844,61.3906 C988.5625,61.6563 987.875,61.7813 987.1094,61.7813 C985.0625,61.7813 983.7656,60.6875 983.7656,58.9844 L983.7656,57.8906 C983.7656,56.1094 985.0156,54.7969 986.75,54.7969 C987.3281,54.7969 987.9375,54.9531 988.4063,55.2031 C988.8906,55.4844 989.0625,55.7031 989.1563,56.1094 C989.2188,56.5156 989.25,56.6406 989.3906,56.7656 C989.5313,56.9063 989.7656,57.0156 989.9844,57.0156 C990.25,57.0156 990.5156,56.875 990.6875,56.6563 C990.7969,56.5 990.8281,56.3125 990.8281,55.8906 L990.8281,54.4688 C990.8281,54.0313 990.8125,53.9063 990.7188,53.75 C990.5625,53.4844 990.2813,53.3438 989.9844,53.3438 C989.6875,53.3438 989.4844,53.4375 989.2656,53.75 L989.0938,53.6719 Z"/><text x="1002.25" y="62.847" fill="#000" font-family="sans-serif" font-size="14" lengthAdjust="spacing" textLength="115">cloudHypervisor</text><line style="stroke:#181818;stroke-width:.5" x1="966" x2="1126" y1="74" y2="74"/><line style="stroke:#181818;stroke-width:.5" x1="966" x2="1126" y1="82" y2="82"/><ellipse cx="976" cy="95.648" fill="#84BE84" rx="3" ry="3" style="stroke:#038048;stroke-width:1"/><text x="985" y="98.995" fill="#000" font-family="sans-serif" font-size="14" lengthAdjust="spacing" textLength="39">new()</text><ellipse cx="976" cy="111.945" fill="#84BE84" rx="3" ry="3" style="stroke:#038048;stroke-width:1"/><text x="985" y="115.292" fill="#000" font-family="sans-serif" font-size="14" lengthAdjust="spacing" textLength="67">register()</text><rect width="6" height="6" x="973" fill="#F24D5C" style="stroke:#c82930;stroke-width:1" y="125.242"/><text x="985" y="131.589" fill="#000" font-family="sans-serif" font-size="14" lengthAdjust="spacing" textLength="50">name()</text><rect width="6" height="6" x="973" fill="#F24D5C" style="stroke:#c82930;stroke-width:1" y="141.539"/><text x="985" y="147.886" fill="#000" font-family="sans-serif" font-size="14" lengthAdjust="spacing" textLength="105">adjust_config()</text><rect width="6" height="6" x="973" fill="#F24D5C" style="stroke:#c82930;stroke-width:1" y="157.836"/><text x="985" y="164.183" fill="#000" font-family="sans-serif" font-size="14" lengthAdjust="spacing" textLength="67">validate()</text><rect width="6" height="6" x="973" fill="#F24D5C" style="stroke:#c82930;stroke-width:1" y="174.133"/><text x="985" y="180.48" fill="#000" font-family="sans-serif" font-size="14" lengthAdjust="spacing" textLength="136">get_min_memory()</text><rect width="6" height="6" x="973" fill="#F24D5C" style="stroke:#c82930;stroke-width:1" y="190.43"/><text x="985" y="196.776" fill="#000" font-family="sans-serif" font-size="14" lengthAdjust="spacing" textLength="112">get_max_cpus()</text></g><g id="link_Hypervisor_blockdev_info"><path id="Hypervisor-backto-blockdev_info" fill="none" d="M503.604,668.393 C474.497,687.429 445.065,706.6783 423.183,720.9898" codeLine="56" style="stroke:#181818;stroke-width:1"/><polygon fill="#181818" points="514.728 661.118 507.517 661.055 504.685 667.687 511.896 667.75 514.728 661.118" style="stroke:#181818;stroke-width:1"/></g><g id="link_Hypervisor_boot_info"><path id="Hypervisor-backto-boot_info" fill="none" d="M575.274,673.28 C566.897,690.564 558.612,707.6606 552.286,720.7133" codeLine="57" style="stroke:#181818;stroke-width:1"/><polygon fill="#181818" points="581.065 661.331 574.849 664.986 575.831 672.13 582.048 668.475 581.065 661.331" style="stroke:#181818;stroke-width:1"/></g><g id="link_Hypervisor_cpu_info"><path id="Hypervisor-backto-cpu_info" fill="none" d="M681.263,523.53 C705.558,504.597 734.57,488.49 765.5,485 C797.409,481.4 1022.59,481.4 1054.5,485 C1062.43,485.895 1065.55,484.304 1072,489 C1100.62,509.837 1118.74,547.721 1128.13,572.496" codeLine="58" style="stroke:#181818;stroke-width:1"/><polygon fill="#181818" points="671.148 531.789 678.325 531.093 680.443 524.2 673.266 524.896 671.148 531.789" style="stroke:#181818;stroke-width:1"/></g><g id="link_Hypervisor_debug_info"><path id="Hypervisor-backto-debug_info" fill="none" d="M648.726,673.28 C657.103,690.564 665.388,707.6606 671.714,720.7133" codeLine="59" style="stroke:#181818;stroke-width:1"/><polygon fill="#181818" points="642.935 661.331 641.952 668.475 648.169 672.13 649.151 664.986 642.935 661.331" style="stroke:#181818;stroke-width:1"/></g><g id="link_device_info_Hypervisor"><path id="device_info-to-Hypervisor" fill="none" d="M459.012,596.5 C466.295,596.5 473.578,596.5 480.862,596.5" codeLine="60" style="stroke:#181818;stroke-width:1"/><polygon fill="#181818" points="493.972 596.5 487.972 592.5 481.972 596.5 487.972 600.5 493.972 596.5" style="stroke:#181818;stroke-width:1"/></g><g id="link_machine_info_Hypervisor"><path id="machine_info-to-Hypervisor" fill="none" d="M257.646,572.446 C270.936,547.63 295.033,509.711 327,489 C333.696,484.662 336.572,485.895 344.5,485 C369.674,482.16 433.326,482.16 458.5,485 C489.43,488.49 518.442,504.597 542.737,523.53" codeLine="61" style="stroke:#181818;stroke-width:1"/><polygon fill="#181818" points="552.852 531.789 550.734 524.896 543.557 524.2 545.675 531.093 552.852 531.789" style="stroke:#181818;stroke-width:1"/></g><g id="link_Hypervisor_memory_info"><path id="Hypervisor-backto-memory_info" fill="none" d="M681.263,523.53 C705.558,504.597 734.57,488.49 765.5,485 C793.544,481.836 864.456,481.836 892.5,485 C900.428,485.895 903.304,484.662 910,489 C941.967,509.711 966.064,547.63 979.354,572.446" codeLine="62" style="stroke:#181818;stroke-width:1"/><polygon fill="#181818" points="671.148 531.789 678.325 531.093 680.443 524.2 673.266 524.896 671.148 531.789" style="stroke:#181818;stroke-width:1"/></g><g id="link_Hypervisor_network_info"><path id="Hypervisor-backto-network_info" fill="none" d="M743.412,596.5 C750.725,596.5 758.038,596.5 765.351,596.5" codeLine="63" style="stroke:#181818;stroke-width:1"/><polygon fill="#181818" points="730.248 596.5 736.248 600.5 742.248 596.5 736.248 592.5 730.248 596.5" style="stroke:#181818;stroke-width:1"/></g><g id="link_security_info_Hypervisor"><path id="security_info-to-Hypervisor" fill="none" d="M96.207,572.449 C109.042,547.634 132.44,509.717 164,489 C170.67,484.622 173.572,485.895 181.5,485 C212.084,481.549 427.916,481.549 458.5,485 C489.43,488.49 518.442,504.597 542.737,523.53" codeLine="64" style="stroke:#181818;stroke-width:1"/><polygon fill="#181818" points="552.852 531.789 550.734 524.896 543.557 524.2 545.675 531.093 552.852 531.789" style="stroke:#181818;stroke-width:1"/></g><g id="link_Hypervisor_shared_fs"><path id="Hypervisor-backto-shared_fs" fill="none" d="M714.953,668.644 C742.382,687.599 770.083,706.7413 790.702,720.9898" codeLine="65" style="stroke:#181818;stroke-width:1"/><polygon fill="#181818" points="704.061 661.118 706.724 667.82 713.934 667.939 711.271 661.238 704.061 661.118" style="stroke:#181818;stroke-width:1"/></g><g id="link_ConfigOps_Hypervisor"><path id="ConfigOps-backto-Hypervisor" fill="none" d="M652.576,428.402 C644.852,460.209 635.335,499.402 627.459,531.835" codeLine="66" style="stroke:#181818;stroke-width:1"/><polygon fill="none" points="645.835 426.496 657.357 408.712 659.44 429.799 645.835 426.496" style="stroke:#181818;stroke-width:1"/></g><g id="link_TomlConfig_Hypervisor"><path id="TomlConfig-backto-Hypervisor" fill="none" d="M497.574,467.195 C517.064,489.05 537.234,511.666 555.11,531.71" codeLine="67" style="stroke:#181818;stroke-width:1"/><polygon fill="#181818" points="488.677 457.219 489.686 464.359 496.664 466.174 495.656 459.034 488.677 457.219" style="stroke:#181818;stroke-width:1"/></g><g id="link_dragonball_ConfigPlugin"><path id="dragonball-to-ConfigPlugin" fill="none" d="M723.359,204.161 C732.443,214.769 741.521,225.578 750,236 C763.293,252.338 777.16,270.158 790.162,287.243" codeLine="101" style="stroke:#181818;stroke-width:1"/><polygon fill="none" points="795.842 283.149 802.315 303.326 784.673 291.59 795.842 283.149" style="stroke:#181818;stroke-width:1"/></g><g id="link_qemu_ConfigPlugin"><path id="qemu-to-ConfigPlugin" fill="none" d="M849,204.241 C849,229.531 849,257.528 849,283.068" codeLine="102" style="stroke:#181818;stroke-width:1"/><polygon fill="none" points="856 283.377 849 303.377 842 283.377 856 283.377" style="stroke:#181818;stroke-width:1"/></g><g id="link_cloudHypervisor_ConfigPlugin"><path id="cloudHypervisor-to-ConfigPlugin" fill="none" d="M980.949,204.241 C959.222,231.041 935.031,260.88 913.357,287.615" codeLine="103" style="stroke:#181818;stroke-width:1"/><polygon fill="none" points="918.612 292.249 900.579 303.377 907.737 283.432 918.612 292.249" style="stroke:#181818;stroke-width:1"/></g></g></svg>